<?xml version="1.0" standalone="no"?>
<!DOCTYPE svg PUBLIC "-//W3C//DTD SVG 20010904//EN"
 "http://www.w3.org/TR/2001/REC-SVG-20010904/DTD/svg10.dtd">
<svg version="1.0" xmlns="http://www.w3.org/2000/svg"
 width="700.000000pt" height="700.000000pt" viewBox="0 0 700.000000 700.000000"
 preserveAspectRatio="xMidYMid meet">
<metadata>
Created by potrace 1.14, written by Peter Selinger 2001-2017
</metadata>
<g transform="translate(0.000000,700.000000) scale(0.100000,-0.100000)"
fill="#000000" stroke="none">
<path d="M3377 6824 c-1 -1 -59 -5 -129 -8 -70 -4 -135 -9 -145 -10 -10 -2
-45 -7 -78 -10 -90 -10 -174 -24 -282 -47 -54 -11 -109 -22 -123 -25 -120 -24
-391 -110 -560 -179 -119 -48 -359 -165 -429 -210 -22 -14 -43 -25 -46 -25
-18 0 -298 -194 -419 -290 -146 -115 -379 -346 -477 -471 -19 -24 -40 -50 -47
-57 -29 -32 -155 -215 -215 -312 -206 -338 -357 -758 -401 -1118 -28 -224 -29
-605 -2 -762 3 -14 7 -43 11 -65 11 -78 17 -111 42 -215 25 -105 93 -329 118
-385 8 -16 26 -59 40 -95 59 -143 167 -340 277 -504 28 -41 45 -77 43 -90 -2
-11 -6 -48 -10 -81 -41 -388 -124 -760 -228 -1025 -59 -150 -170 -342 -247
-427 -56 -61 -62 -71 -67 -107 -5 -41 17 -89 53 -112 25 -17 83 -21 134 -9 14
3 54 10 90 16 82 13 370 74 475 101 44 11 87 21 95 23 50 10 457 133 475 143
6 4 15 7 20 8 19 3 251 93 320 124 39 17 88 38 110 48 22 9 99 46 170 83 129
67 130 67 165 53 153 -65 565 -181 705 -199 11 -1 36 -5 55 -9 68 -12 96 -16
165 -22 38 -4 72 -8 75 -10 11 -6 277 -18 395 -17 128 0 367 11 388 18 6 2 39
6 72 9 33 4 71 8 84 11 12 2 42 7 66 9 23 3 78 12 121 21 561 114 1048 326
1479 644 95 70 95 70 220 177 474 405 852 1013 980 1574 31 134 46 207 51 251
3 30 8 57 10 60 17 30 26 493 11 644 -108 1131 -892 2127 -2047 2600 -229 94
-578 195 -765 221 -16 2 -41 6 -55 9 -28 6 -107 16 -225 30 -117 13 -508 27
-518 19z m-1372 -2705 c196 -66 325 -238 326 -434 0 -78 -4 -103 -26 -166 -23
-66 -61 -124 -111 -174 -241 -237 -636 -151 -764 168 -30 76 -36 201 -13 283
46 161 177 291 335 330 70 17 191 14 253 -7z m1660 -9 c186 -72 305 -249 299
-446 -4 -175 -105 -333 -260 -406 -34 -16 -72 -31 -85 -35 -48 -13 -197 -12
-241 2 -212 63 -350 253 -342 468 3 83 38 195 75 241 5 6 21 26 35 44 44 55
127 110 206 136 95 33 222 31 313 -4z m1572 20 c241 -56 402 -306 353 -547
-36 -173 -185 -325 -356 -363 -191 -43 -402 48 -500 217 -109 185 -81 414 71
565 54 55 155 114 211 124 16 3 31 7 33 10 8 8 146 4 188 -6z"/>
</g>
</svg>
